<svg width="140" height="33" viewBox="0 0 140 33" fill="none" xmlns="http://www.w3.org/2000/svg">
<path d="M4.05189 3.07165C4.22697 3.5057 4.5146 4.22061 4.91479 5.21638C5.31498 6.18661 5.76519 7.29727 6.26542 8.54836C6.79067 9.79945 7.32842 11.1271 7.87867 12.5314C8.45394 13.9357 8.99169 15.2634 9.49193 16.5145C9.99216 17.7656 10.4424 18.889 10.8426 19.8848C11.2427 20.855 11.5304 21.5571 11.7055 21.9912C11.7305 22.0423 11.793 22.221 11.893 22.5274C11.9931 22.8338 12.0681 23.1019 12.1181 23.3316L12.4933 21.9912C12.6684 21.5571 12.956 20.855 13.3562 19.8848C13.7564 18.889 14.2066 17.7656 14.7069 16.5145C15.2071 15.2634 15.7323 13.9357 16.2826 12.5314C16.8579 11.1271 17.3956 9.79945 17.8958 8.54836C18.4211 7.29727 18.8838 6.18661 19.284 5.21638C19.6842 4.22061 19.9718 3.5057 20.1469 3.07165H24.1988C24.0487 3.42911 23.7736 4.08018 23.3734 5.02488C22.9982 5.94405 22.5355 7.06748 21.9852 8.39517C21.435 9.72285 20.8222 11.1782 20.1469 12.7612C19.4966 14.3442 18.8213 15.9528 18.1209 17.5868C17.4456 19.2209 16.7703 20.8295 16.095 22.4125C15.4447 23.9955 14.8444 25.4508 14.2942 26.7785C13.7689 28.1062 13.3062 29.2424 12.906 30.1871C12.5308 31.1063 12.2682 31.7446 12.1181 32.102L0 3.07165H4.05189Z" fill="white"/>
<path d="M31.3802 30.8382V3.07165H49.2385V6.86322H35.5071V14.9825H47.7378V18.8507H35.5071V26.97H49.7637V30.8382H31.3802Z" fill="white"/>
<path d="M58.2872 30.8382V3.07165H65.7157C67.1414 3.07165 68.442 3.26315 69.6175 3.64613C70.8181 4.02912 71.8436 4.6036 72.6939 5.36957C73.5694 6.11001 74.2447 7.02918 74.7199 8.12707C75.1951 9.19944 75.4327 10.4378 75.4327 11.842C75.4327 12.608 75.3577 13.374 75.2076 14.14C75.0575 14.8804 74.8074 15.6081 74.4573 16.323C74.1321 17.0124 73.7069 17.6634 73.1817 18.2762C72.6564 18.8635 72.0186 19.3614 71.2683 19.7699C72.2687 21.3784 73.3568 23.1657 74.5323 25.1317C75.7078 27.0721 76.8959 28.9743 78.0965 30.8382H73.1817C72.6814 30.0467 72.1562 29.2169 71.6059 28.3488C71.0807 27.4807 70.5429 26.6253 69.9927 25.7828C69.4674 24.9147 68.9422 24.0721 68.4169 23.255C67.9167 22.4125 67.4415 21.6337 66.9913 20.9188H66.2409H62.4142V30.8382H58.2872ZM62.4142 16.9741H66.1284C67.1289 16.9741 67.9667 16.8081 68.6421 16.4762C69.3174 16.1187 69.8426 15.6847 70.2178 15.174C70.618 14.6634 70.8931 14.1144 71.0432 13.5272C71.2183 12.9399 71.3058 12.4038 71.3058 11.9186C71.3058 11.4335 71.2183 10.9101 71.0432 10.3484C70.8931 9.76115 70.618 9.22497 70.2178 8.73985C69.8176 8.22921 69.2799 7.80792 68.6045 7.476C67.9542 7.14408 67.1414 6.97812 66.1659 6.97812H62.4142V16.9741Z" fill="white"/>
<path d="M101.167 4.6036L99.7039 8.01218C98.6784 7.62919 97.6529 7.3228 96.6275 7.09301C95.627 6.86322 94.664 6.74832 93.7386 6.74832C92.1629 6.74832 90.8998 7.08025 89.9493 7.74409C89.0239 8.40793 88.5612 9.2505 88.5612 10.2718C88.5612 11.1399 88.8989 11.842 89.5742 12.3782C90.2495 12.8889 91.0874 13.3612 92.0878 13.7953C93.0883 14.2038 94.1763 14.6251 95.3519 15.0591C96.5274 15.4677 97.6154 16.0038 98.6159 16.6677C99.6164 17.3315 100.454 18.1741 101.13 19.1954C101.805 20.1912 102.143 21.4805 102.143 23.0636C102.143 24.2891 101.917 25.3998 101.467 26.3955C101.042 27.3658 100.392 28.2083 99.5163 28.9233C98.6659 29.6382 97.5904 30.1871 96.2898 30.5701C95.0142 30.9531 93.5135 31.1446 91.7877 31.1446C90.6872 31.1446 89.6867 31.068 88.7863 30.9148C87.9109 30.7616 87.1105 30.5701 86.3852 30.3403C85.6849 30.085 85.0596 29.8169 84.5093 29.536C83.9841 29.2552 83.5339 28.9998 83.1587 28.7701L84.9595 25.1317C85.96 25.7189 87.073 26.1913 88.2986 26.5487C89.5241 26.9062 90.6372 27.0849 91.6376 27.0849C92.1379 27.0849 92.7507 27.0211 93.476 26.8934C94.2263 26.7658 94.9392 26.5487 95.6145 26.2423C96.2898 25.9104 96.8651 25.4764 97.3403 24.9402C97.8405 24.404 98.0906 23.7274 98.0906 22.9104C98.0906 22.1699 97.8905 21.5444 97.4904 21.0337C97.1152 20.4975 96.6025 20.038 95.9521 19.655C95.3269 19.2465 94.6015 18.889 93.7761 18.5826C92.9758 18.2507 92.1504 17.9188 91.3 17.5868C90.4496 17.2294 89.6117 16.8592 88.7863 16.4762C87.9859 16.0932 87.2606 15.6336 86.6103 15.0974C85.985 14.5357 85.4723 13.8974 85.0721 13.1825C84.6969 12.4421 84.5093 11.5612 84.5093 10.5399C84.5093 9.59519 84.6969 8.66326 85.0721 7.74409C85.4473 6.82492 86.01 6.00788 86.7604 5.29297C87.5107 4.57807 88.4361 4.00359 89.5367 3.56954C90.6622 3.13548 91.9628 2.91846 93.4385 2.91846C94.3389 2.91846 95.2143 2.99505 96.0647 3.14825C96.9401 3.30144 97.728 3.48017 98.4283 3.68443C99.1286 3.86316 99.7164 4.04188 100.192 4.22061C100.692 4.39934 101.017 4.527 101.167 4.6036Z" fill="white"/>
<path fill-rule="evenodd" clip-rule="evenodd" d="M126.91 4.33474L134.749 12.1653C137.146 14.5593 137.146 18.4407 134.749 20.8347L126.91 28.6653C124.514 31.0593 120.628 31.0593 118.232 28.6653L110.393 20.8347C107.996 18.4407 107.996 14.5593 110.393 12.1653L118.232 4.33474C120.628 1.94073 124.514 1.94073 126.91 4.33474ZM124.431 6.81173C123.404 5.78573 121.738 5.78573 120.711 6.81173L112.873 14.6423C111.845 15.6683 111.845 17.3317 112.873 18.3577L120.711 26.1883C121.738 27.2143 123.404 27.2143 124.431 26.1883L132.27 18.3577C133.297 17.3317 133.297 15.6683 132.27 14.6423L124.431 6.81173Z" fill="white"/>
</svg>
